<mxfile host="app.diagrams.net" modified="2024-05-18T20:02:25.191Z" agent="Mozilla/5.0 (Macintosh; Intel Mac OS X 10_15_7) AppleWebKit/537.36 (KHTML, like Gecko) Chrome/124.0.0.0 Safari/537.36" etag="8sk1OUrLnwGexN_0EvAn" version="24.4.4" type="github">
  <diagram name="Page-1" id="5y6IGtCHfefg0UG6-Cvr">
    <mxGraphModel dx="1100" dy="1034" grid="1" gridSize="10" guides="1" tooltips="1" connect="1" arrows="1" fold="1" page="1" pageScale="1" pageWidth="850" pageHeight="1100" math="0" shadow="0">
      <root>
        <mxCell id="0" />
        <mxCell id="1" parent="0" />
        <mxCell id="JIDA0Lga-9D9GwtFfnP9-3" value="Mac" style="verticalLabelPosition=bottom;verticalAlign=top;html=1;shape=mxgraph.basic.polygon;polyCoords=[[0.25,0],[0.75,0],[1,0.25],[1,0.75],[0.75,1],[0.25,1],[0,0.75],[0,0.25]];polyline=0;" vertex="1" parent="1">
          <mxGeometry x="430" y="811" width="390" height="370" as="geometry" />
        </mxCell>
        <mxCell id="JIDA0Lga-9D9GwtFfnP9-9" value="" style="edgeStyle=orthogonalEdgeStyle;rounded=0;orthogonalLoop=1;jettySize=auto;html=1;" edge="1" parent="1" source="JIDA0Lga-9D9GwtFfnP9-4" target="JIDA0Lga-9D9GwtFfnP9-6">
          <mxGeometry relative="1" as="geometry" />
        </mxCell>
        <mxCell id="JIDA0Lga-9D9GwtFfnP9-4" value="Docker / Coolify" style="verticalLabelPosition=bottom;verticalAlign=top;html=1;shape=mxgraph.basic.polygon;polyCoords=[[0.25,0],[0.75,0],[1,0.25],[1,0.75],[0.75,1],[0.25,1],[0,0.75],[0,0.25]];polyline=0;" vertex="1" parent="1">
          <mxGeometry x="450" y="821" width="350" height="330" as="geometry" />
        </mxCell>
        <mxCell id="JIDA0Lga-9D9GwtFfnP9-1" value="Supabase" style="whiteSpace=wrap;html=1;aspect=fixed;" vertex="1" parent="1">
          <mxGeometry x="100" y="160" width="80" height="80" as="geometry" />
        </mxCell>
        <mxCell id="JIDA0Lga-9D9GwtFfnP9-2" value="Supabase" style="whiteSpace=wrap;html=1;aspect=fixed;" vertex="1" parent="1">
          <mxGeometry x="500" y="881" width="180" height="180" as="geometry" />
        </mxCell>
        <mxCell id="JIDA0Lga-9D9GwtFfnP9-5" value="" style="shape=cylinder3;whiteSpace=wrap;html=1;boundedLbl=1;backgroundOutline=1;size=15;lid=0;" vertex="1" parent="1">
          <mxGeometry x="520" y="881" width="40" height="60" as="geometry" />
        </mxCell>
        <mxCell id="JIDA0Lga-9D9GwtFfnP9-6" value="Deno Deploy" style="verticalLabelPosition=bottom;verticalAlign=top;html=1;shape=mxgraph.basic.polygon;polyCoords=[[0.25,0],[0.75,0],[1,0.25],[1,0.75],[0.75,1],[0.25,1],[0,0.75],[0,0.25]];polyline=0;" vertex="1" parent="1">
          <mxGeometry x="430" y="411" width="390" height="370" as="geometry" />
        </mxCell>
        <mxCell id="JIDA0Lga-9D9GwtFfnP9-7" value="Mac" style="verticalLabelPosition=bottom;verticalAlign=top;html=1;shape=mxgraph.basic.polygon;polyCoords=[[0.25,0],[0.75,0],[1,0.25],[1,0.75],[0.75,1],[0.25,1],[0,0.75],[0,0.25]];polyline=0;" vertex="1" parent="1">
          <mxGeometry x="430" y="10" width="390" height="370" as="geometry" />
        </mxCell>
      </root>
    </mxGraphModel>
  </diagram>
</mxfile>
